<?xml version="1.0" encoding="utf-8" ?>
<svg xmlns="http://www.w3.org/2000/svg" xmlns:xlink="http://www.w3.org/1999/xlink" width="15" height="15">
	<defs>
		<clipPath id="clip_0">
			<rect x="-82" y="-962" width="1580" height="1020" clip-rule="evenodd"/>
		</clipPath>
	</defs>
	<g clip-path="url(#clip_0)">
		<path fill="rgb(170,178,192)" stroke="none" d="M1.66667 0L13.3333 0C14.25 0 15 0.75 15 1.66667L15 13.3333C15 14.25 14.25 15 13.3333 15L1.66667 15C0.741667 15 0 14.25 0 13.3333L0 10L1.66667 10L1.66667 13.3333L13.3333 13.3333L13.3333 1.66667L1.66667 1.66667L1.66667 5L0 5L0 1.66667C0 0.75 0.741667 0 1.66667 0ZM7.08333 11.6666L5.90833 10.4916L8.05833 8.33325L0 8.33325L0 6.66658L8.05833 6.66658L5.90833 4.50825L7.08333 3.33325L11.25 7.49992L7.08333 11.6666Z" fill-rule="evenodd"/>
	</g>
</svg>
